<?xml version="1.0" encoding="utf-8"?>
<!-- Generator: Adobe Illustrator 24.1.2, SVG Export Plug-In . SVG Version: 6.00 Build 0)  -->
<svg version="1.1" xmlns="http://www.w3.org/2000/svg" xmlns:xlink="http://www.w3.org/1999/xlink" x="0px" y="0px"
	 viewBox="0 0 1000 1000" style="enable-background:new 0 0 1000 1000;" xml:space="preserve">
<style type="text/css">
	.st0{display:none;}
	.st1{display:inline;}
	.st2{display:inline;fill:#FFFFFF;}
	.st3{fill:#FFFFFF;}
</style>
<g id="Background" class="st0">
	<rect class="st2" width="1000" height="1000"/>
</g>
<g id="Logo">
	<g>
		<polygon points="453.24,604.79 455.18,602.5 457.1,600.18 459,597.86 460.87,595.51 462.73,593.15 464.57,590.77 621.53,385.23 
			822.39,472.94 621.53,472.94 588.05,516.79 533.51,588.24 487.97,647.94 487.85,648.09 487.69,648.31 485.45,650.77 
			483.07,653.34 480.66,655.89 478.22,658.41 475.77,660.91 473.29,663.39 470.79,665.85 468.26,668.29 465.71,670.7 463.15,673.08 
			460.56,675.45 457.94,677.79 455.31,680.1 452.66,682.39 449.98,684.66 447.28,686.9 444.57,689.12 441.83,691.31 439.07,693.48 
			436.29,695.62 433.5,697.74 430.68,699.83 427.85,701.89 424.99,703.93 422.12,705.94 419.23,707.93 416.32,709.89 413.4,711.82 
			410.45,713.72 407.49,715.6 404.51,717.45 401.51,719.28 398.5,721.07 395.47,722.84 392.43,724.58 389.37,726.29 386.29,727.97 
			383.2,729.63 380.09,731.26 376.97,732.85 373.83,734.42 370.68,735.96 367.52,737.48 364.34,738.96 361.15,740.41 357.94,741.84 
			354.73,743.23 351.5,744.59 348.25,745.93 345,747.23 341.73,748.51 338.45,749.75 335.16,750.97 331.86,752.15 328.55,753.31 
			325.23,754.43 321.9,755.52 318.55,756.59 315.2,757.62 311.84,758.62 308.47,759.59 305.09,760.53 301.71,761.44 298.31,762.31 
			294.91,763.16 291.5,763.97 288.08,764.75 284.65,765.51 281.22,766.23 277.78,766.91 274.33,767.57 270.88,768.19 267.43,768.79 
			263.97,769.35 260.5,769.88 257.03,770.38 253.55,770.84 250.07,771.28 246.59,771.68 243.1,772.05 239.61,772.39 236.12,772.69 
			232.62,772.97 229.12,773.21 225.62,773.42 222.12,773.6 218.62,773.74 215.11,773.85 211.6,773.93 209.08,773.97 81.72,773.97 
			278.04,516.79 344.99,516.79 190.5,719.17 204.59,719.38 207.6,719.36 210.6,719.32 213.61,719.25 216.61,719.15 219.61,719.03 
			222.61,718.88 225.61,718.7 228.61,718.49 231.61,718.26 234.6,717.99 237.59,717.7 240.58,717.39 243.56,717.04 246.55,716.67 
			249.52,716.27 252.5,715.85 255.47,715.39 258.44,714.91 261.4,714.4 264.35,713.87 267.31,713.31 270.25,712.72 273.19,712.1 
			276.13,711.45 279.06,710.78 281.98,710.09 284.9,709.36 287.81,708.61 290.71,707.83 293.61,707.03 296.49,706.2 299.37,705.34 
			302.24,704.46 305.11,703.55 307.96,702.61 310.81,701.65 313.65,700.66 316.48,699.64 319.3,698.6 322.11,697.53 324.91,696.44 
			327.69,695.32 330.47,694.18 333.24,693.01 336,691.82 338.75,690.6 341.48,689.35 344.2,688.08 346.91,686.79 349.61,685.47 
			352.3,684.12 354.98,682.75 357.64,681.36 360.29,679.94 362.92,678.5 365.55,677.03 368.16,675.54 370.75,674.02 373.33,672.48 
			375.9,670.92 378.45,669.34 380.99,667.73 383.51,666.1 386.02,664.44 388.51,662.76 390.99,661.06 393.45,659.34 395.9,657.59 
			398.33,655.82 400.74,654.03 403.14,652.22 405.52,650.38 407.88,648.52 410.22,646.65 412.55,644.75 414.86,642.82 
			417.16,640.88 419.43,638.92 421.69,636.93 423.93,634.93 426.15,632.9 428.35,630.86 430.53,628.79 432.69,626.71 434.84,624.6 
			436.96,622.48 439.06,620.33 441.15,618.17 443.22,615.98 445.26,613.78 447.29,611.56 449.29,609.32 451.27,607.06 		"/>
		<polygon points="721.96,516.79 918.28,773.97 790.92,773.97 788.39,773.93 784.89,773.85 781.38,773.74 777.88,773.6 
			774.38,773.42 770.88,773.21 767.38,772.97 763.88,772.69 760.39,772.39 756.9,772.05 753.41,771.68 749.93,771.28 746.45,770.84 
			742.97,770.38 739.5,769.88 736.03,769.35 732.57,768.79 729.12,768.19 725.66,767.57 722.22,766.91 718.78,766.23 715.35,765.51 
			711.92,764.75 708.5,763.97 705.09,763.16 701.69,762.31 698.29,761.44 694.91,760.53 691.53,759.59 688.16,758.62 684.8,757.62 
			681.45,756.59 678.1,755.52 674.77,754.43 671.45,753.31 668.14,752.15 664.84,750.97 661.55,749.75 658.27,748.51 655,747.23 
			651.75,745.93 648.5,744.59 645.27,743.23 642.06,741.84 638.85,740.41 635.66,738.96 632.48,737.48 629.32,735.96 626.17,734.42 
			623.03,732.85 619.91,731.26 616.8,729.63 613.71,727.97 610.63,726.29 607.57,724.58 604.53,722.84 601.5,721.07 598.49,719.28 
			595.49,717.45 592.51,715.6 589.55,713.72 586.61,711.82 583.68,709.89 580.77,707.93 577.88,705.94 575.01,703.93 572.15,701.89 
			569.32,699.83 566.5,697.74 563.71,695.62 560.93,693.48 558.17,691.31 555.43,689.12 552.72,686.9 550.02,684.66 547.35,682.39 
			544.69,680.1 542.06,677.79 539.44,675.45 536.85,673.08 536.21,672.49 569.52,628.84 571.65,630.86 573.85,632.9 576.08,634.93 
			578.31,636.93 580.57,638.92 582.85,640.88 585.14,642.82 587.45,644.75 589.78,646.65 592.12,648.52 594.48,650.38 
			596.86,652.22 599.26,654.03 601.67,655.82 604.1,657.59 606.55,659.34 609.01,661.06 611.49,662.76 613.98,664.44 616.49,666.1 
			619.01,667.73 621.55,669.34 624.1,670.92 626.67,672.48 629.25,674.02 631.84,675.54 634.45,677.03 637.08,678.5 639.71,679.94 
			642.36,681.36 645.02,682.75 647.7,684.12 650.39,685.47 653.09,686.79 655.8,688.08 658.52,689.35 661.25,690.6 664,691.82 
			666.76,693.01 669.53,694.18 672.31,695.32 675.1,696.44 677.89,697.53 680.7,698.6 683.52,699.64 686.35,700.66 689.19,701.65 
			692.03,702.61 694.89,703.55 697.75,704.46 700.63,705.34 703.51,706.2 706.39,707.03 709.29,707.83 712.19,708.61 715.1,709.36 
			718.02,710.09 720.94,710.78 723.87,711.45 726.81,712.1 729.75,712.72 732.69,713.31 735.65,713.87 738.6,714.4 741.56,714.91 
			744.53,715.39 747.5,715.85 750.48,716.27 753.45,716.67 756.44,717.04 759.42,717.39 762.41,717.7 765.4,717.99 768.39,718.26 
			771.39,718.49 774.39,718.7 777.39,718.88 780.39,719.03 783.39,719.15 786.39,719.25 789.4,719.32 792.4,719.36 795.41,719.38 
			809.5,719.17 655.01,516.79 		"/>
		<polygon points="432.97,544.35 378.47,472.94 177.61,472.94 378.47,385.23 466.48,500.48 		"/>
		<polygon points="554.54,385.18 500,313.74 445.45,385.2 411.96,341.36 500,226.03 588.03,341.34 		"/>
	</g>
</g>
</svg>
